<?xml version="1.0" encoding="UTF-8"?>
<!DOCTYPE svg PUBLIC "-//W3C//DTD SVG 1.1//EN" "http://www.w3.org/Graphics/SVG/1.1/DTD/svg11.dtd">
<svg version="1.1" xmlns="http://www.w3.org/2000/svg" xmlns:xlink="http://www.w3.org/1999/xlink" x="0px" y="0px" width="1200" height="400" viewBox="0, 0, 1200, 400">
  <g id="Background">
    <rect x="0" y="0" width="1200" height="400" fill="#000000" fill-opacity="0"/>
  </g>
  <g id="Layer 1">
    <path d="M129.353,234.954 C129.353,234.954 106.61,231.929 100,210.979 C100,210.979 114.228,217.029 131.033,212.884 C131.033,212.884 133.274,209.747 124.423,200 C124.423,200 150.975,202.241 152.095,216.245 C152.095,216.245 163.526,200.733 177.303,211.203 C180.104,213.332 180.888,216.581 178.871,215.012 C178.871,215.012 168.9,215.012 165.651,227.112 C165.651,227.112 164.531,252.095 131.929,248.734 C131.929,248.734 123.527,255.905 123.527,259.602 L108.739,253.888 C108.739,253.888 130.585,241.9 129.353,234.954 z" fill="#294270"/>
    <text transform="matrix(1, 0, 0, 1, 600, 30.5)">
      <tspan x="-164" y="11.5" font-family="PTMono-Bold" font-size="36" fill="#294270">checkio(5) == 3</tspan>
    </text>
    <text transform="matrix(1, 0, 0, 1, 208, 140.5)">
      <tspan x="-108" y="-8.5" font-family="PTMono-Bold" font-size="36" fill="#294270">1st minute</tspan>
      <tspan x="-108" y="31.5" font-family="PTMono-Bold" font-size="36" fill="#294270">N = 4</tspan>
    </text>
    <path d="M429.353,234.954 C429.353,234.954 406.61,231.929 400,210.979 C400,210.979 414.228,217.029 431.033,212.884 C431.033,212.884 433.274,209.747 424.423,200 C424.423,200 450.975,202.241 452.095,216.245 C452.095,216.245 463.526,200.733 477.303,211.203 C480.104,213.332 480.888,216.581 478.871,215.012 C478.871,215.012 468.9,215.012 465.651,227.112 C465.651,227.112 464.531,252.095 431.929,248.734 C431.929,248.734 423.527,255.905 423.527,259.602 L408.739,253.888 C408.739,253.888 430.585,241.9 429.353,234.954 z" fill="#294270"/>
    <text transform="matrix(1, 0, 0, 1, 508, 140.5)">
      <tspan x="-108" y="-8.5" font-family="PTMono-Bold" font-size="36" fill="#294270">2nd minute</tspan>
      <tspan x="-108" y="31.5" font-family="PTMono-Bold" font-size="36" fill="#294270">N = 1</tspan>
    </text>
    <path d="M829.353,234.954 C829.353,234.954 806.61,231.929 800,210.979 C800,210.979 814.228,217.029 831.033,212.884 C831.033,212.884 833.274,209.747 824.423,200 C824.423,200 850.975,202.241 852.095,216.245 C852.095,216.245 863.526,200.733 877.303,211.203 C880.104,213.332 880.888,216.581 878.871,215.012 C878.871,215.012 868.9,215.012 865.651,227.112 C865.651,227.112 864.531,252.095 831.929,248.734 C831.929,248.734 823.527,255.905 823.527,259.602 L808.739,253.888 C808.739,253.888 830.585,241.9 829.353,234.954 z" fill="#294270"/>
    <text transform="matrix(1, 0, 0, 1, 908, 140.5)">
      <tspan x="-108" y="-8.5" font-family="PTMono-Bold" font-size="36" fill="#294270">3rd minute</tspan>
      <tspan x="-108" y="31.5" font-family="PTMono-Bold" font-size="36" fill="#294270">N = 0</tspan>
    </text>
    <path d="M529.353,234.954 C529.353,234.954 506.61,231.929 500,210.979 C500,210.979 514.228,217.029 531.033,212.884 C531.033,212.884 533.274,209.747 524.423,200 C524.423,200 550.975,202.241 552.095,216.245 C552.095,216.245 563.526,200.733 577.303,211.203 C580.104,213.332 580.888,216.581 578.871,215.012 C578.871,215.012 568.9,215.012 565.651,227.112 C565.651,227.112 564.531,252.095 531.929,248.734 C531.929,248.734 523.527,255.905 523.527,259.602 L508.739,253.888 C508.739,253.888 530.585,241.9 529.353,234.954 z" fill="#294270"/>
    <path d="M629.353,234.954 C629.353,234.954 606.61,231.929 600,210.979 C600,210.979 614.228,217.029 631.033,212.884 C631.033,212.884 633.274,209.747 624.423,200 C624.423,200 650.975,202.241 652.095,216.245 C652.095,216.245 663.526,200.733 677.303,211.203 C680.104,213.332 680.888,216.581 678.871,215.012 C678.871,215.012 668.9,215.012 665.651,227.112 C665.651,227.112 664.531,252.095 631.929,248.734 C631.929,248.734 623.527,255.905 623.527,259.602 L608.739,253.888 C608.739,253.888 630.585,241.9 629.353,234.954 z" fill="#294270"/>
    <path d="M829.353,304.954 C829.353,304.954 806.61,301.929 800,280.979 C800,280.979 814.228,287.029 831.033,282.884 C831.033,282.884 833.274,279.747 824.423,270 C824.423,270 850.975,272.241 852.095,286.245 C852.095,286.245 863.526,270.733 877.303,281.203 C880.104,283.332 880.888,286.581 878.871,285.012 C878.871,285.012 868.9,285.012 865.651,297.112 C865.651,297.112 864.531,322.095 831.929,318.734 C831.929,318.734 823.527,325.905 823.527,329.602 L808.739,323.888 C808.739,323.888 830.585,311.9 829.353,304.954 z" fill="#65A1CF"/>
    <path d="M929.353,304.954 C929.353,304.954 906.61,301.929 900,280.979 C900,280.979 914.228,287.029 931.033,282.884 C931.033,282.884 933.274,279.747 924.423,270 C924.423,270 950.975,272.241 952.095,286.245 C952.095,286.245 963.526,270.733 977.303,281.203 C980.104,283.332 980.888,286.581 978.871,285.012 C978.871,285.012 968.9,285.012 965.651,297.112 C965.651,297.112 964.531,322.095 931.929,318.734 C931.929,318.734 923.527,325.905 923.527,329.602 L908.739,323.888 C908.739,323.888 930.585,311.9 929.353,304.954 z" fill="#65A1CF"/>
    <path d="M1029.353,304.954 C1029.353,304.954 1006.61,301.929 1000,280.979 C1000,280.979 1014.228,287.029 1031.033,282.884 C1031.033,282.884 1033.274,279.747 1024.423,270 C1024.423,270 1050.975,272.241 1052.095,286.245 C1052.095,286.245 1063.526,270.733 1077.303,281.203 C1080.104,283.332 1080.888,286.581 1078.871,285.012 C1078.871,285.012 1068.9,285.012 1065.651,297.112 C1065.651,297.112 1064.531,322.095 1031.929,318.734 C1031.929,318.734 1023.527,325.905 1023.527,329.602 L1008.739,323.888 C1008.739,323.888 1030.585,311.9 1029.353,304.954 z" fill="#65A1CF"/>
    <path d="M929.353,234.954 C929.353,234.954 906.61,231.929 900,210.979 C900,210.979 914.228,217.029 931.033,212.884 C931.033,212.884 933.274,209.747 924.423,200 C924.423,200 950.975,202.241 952.095,216.245 C952.095,216.245 963.526,200.733 977.303,211.203 C980.104,213.332 980.888,216.581 978.871,215.012 C978.871,215.012 968.9,215.012 965.651,227.112 C965.651,227.112 964.531,252.095 931.929,248.734 C931.929,248.734 923.527,255.905 923.527,259.602 L908.739,253.888 C908.739,253.888 930.585,241.9 929.353,234.954 z" fill="#294270"/>
    <path d="M1029.353,234.954 C1029.353,234.954 1006.61,231.929 1000,210.979 C1000,210.979 1014.228,217.029 1031.033,212.884 C1031.033,212.884 1033.274,209.747 1024.423,200 C1024.423,200 1050.975,202.241 1052.095,216.245 C1052.095,216.245 1063.526,200.733 1077.303,211.203 C1080.104,213.332 1080.888,216.581 1078.871,215.012 C1078.871,215.012 1068.9,215.012 1065.651,227.112 C1065.651,227.112 1064.531,252.095 1031.929,248.734 C1031.929,248.734 1023.527,255.905 1023.527,259.602 L1008.739,253.888 C1008.739,253.888 1030.585,241.9 1029.353,234.954 z" fill="#294270"/>
    <text transform="matrix(1, 0, 0, 1, 140, 229.801)">
      <tspan x="-10.8" y="11.5" font-family="PTMono-Bold" font-size="36" fill="#F0801A">1</tspan>
    </text>
    <text transform="matrix(1, 0, 0, 1, 440, 229.801)">
      <tspan x="-10.8" y="11.5" font-family="PTMono-Bold" font-size="36" fill="#F0801A">2</tspan>
    </text>
    <text transform="matrix(1, 0, 0, 1, 540, 229.801)">
      <tspan x="-10.8" y="11.5" font-family="PTMono-Bold" font-size="36" fill="#F0801A">1</tspan>
    </text>
    <text transform="matrix(1, 0, 0, 1, 640, 229.801)">
      <tspan x="-10.8" y="11.5" font-family="PTMono-Bold" font-size="36" fill="#F0801A">1</tspan>
    </text>
    <text transform="matrix(1, 0, 0, 1, 840, 229.801)">
      <tspan x="-10.8" y="11.5" font-family="PTMono-Bold" font-size="36" fill="#F0801A">3</tspan>
    </text>
    <text transform="matrix(1, 0, 0, 1, 1040, 229.801)">
      <tspan x="-10.8" y="11.5" font-family="PTMono-Bold" font-size="36" fill="#F0801A">1</tspan>
    </text>
    <text transform="matrix(1, 0, 0, 1, 940, 229.801)">
      <tspan x="-10.8" y="11.5" font-family="PTMono-Bold" font-size="36" fill="#F0801A">1</tspan>
    </text>
  </g>
  <defs/>
</svg>
