<?xml version="1.0" encoding="UTF-8" standalone="no"?>
<svg
   xmlns:dc="http://purl.org/dc/elements/1.1/"
   xmlns:cc="http://creativecommons.org/ns#"
   xmlns:rdf="http://www.w3.org/1999/02/22-rdf-syntax-ns#"
   xmlns:svg="http://www.w3.org/2000/svg"
   xmlns="http://www.w3.org/2000/svg"
   width="1080"
   height="1080"
   viewBox="0 0 285.75001 285.75001"
   version="1.1"
   id="svg8">
  <defs
     id="defs2">
    <marker
       style="overflow:visible"
       id="Arrow1Mend"
       refX="0"
       refY="0"
       orient="auto">
      <path
         transform="matrix(-0.4,0,0,-0.4,-4,0)"
         style="fill:#fa8f00;fill-opacity:1;fill-rule:evenodd;stroke:#fa8f00;stroke-width:1.00000003pt;stroke-opacity:1"
         d="M 0,0 5,-5 -12.5,0 5,5 Z"
         id="path5322" />
    </marker>
    <marker
       style="overflow:visible"
       id="Arrow1Mend-4"
       refX="0"
       refY="0"
       orient="auto">
      <path
         transform="matrix(-0.4,0,0,-0.4,-4,0)"
         style="fill:#fa8f00;fill-opacity:1;fill-rule:evenodd;stroke:#fa8f00;stroke-width:1.00000003pt;stroke-opacity:1"
         d="M 0,0 5,-5 -12.5,0 5,5 Z"
         id="path5322-5" />
    </marker>
  </defs>
  <metadata
     id="metadata5">
    <rdf:RDF>
      <cc:Work
         rdf:about="">
        <dc:format>image/svg+xml</dc:format>
        <dc:type
           rdf:resource="http://purl.org/dc/dcmitype/StillImage" />
        <dc:title></dc:title>
      </cc:Work>
    </rdf:RDF>
  </metadata>
  <rect
     style="fill:#c9ebfb;fill-opacity:1;stroke:none;stroke-width:18.2091732;stroke-linecap:round;stroke-miterlimit:4;stroke-dasharray:none;stroke-opacity:1;paint-order:markers stroke fill"
     id="rect7624"
     width="285.75"
     height="285.75"
     x="0.0084436871"
     y="-0.0035707499" />
  <g
     id="g152"
     transform="matrix(1.4552084,0,0,1.4552084,353.40658,-315.79146)" />
  <g
     id="g154"
     transform="matrix(1.4552084,0,0,1.4552084,353.40658,-315.79146)" />
  <g
     id="g156"
     transform="matrix(1.4552084,0,0,1.4552084,353.40658,-315.79146)" />
  <g
     id="g158"
     transform="matrix(1.4552084,0,0,1.4552084,353.40658,-315.79146)" />
  <g
     id="g160"
     transform="matrix(1.4552084,0,0,1.4552084,353.40658,-315.79146)" />
  <g
     id="g162"
     transform="matrix(1.4552084,0,0,1.4552084,353.40658,-315.79146)" />
  <g
     id="g164"
     transform="matrix(1.4552084,0,0,1.4552084,353.40658,-315.79146)" />
  <g
     id="g166"
     transform="matrix(1.4552084,0,0,1.4552084,353.40658,-315.79146)" />
  <g
     id="g168"
     transform="matrix(1.4552084,0,0,1.4552084,353.40658,-315.79146)" />
  <g
     id="g170"
     transform="matrix(1.4552084,0,0,1.4552084,353.40658,-315.79146)" />
  <g
     id="g172"
     transform="matrix(1.4552084,0,0,1.4552084,353.40658,-315.79146)" />
  <g
     id="g174"
     transform="matrix(1.4552084,0,0,1.4552084,353.40658,-315.79146)" />
  <g
     id="g176"
     transform="matrix(1.4552084,0,0,1.4552084,353.40658,-315.79146)" />
  <g
     id="g178"
     transform="matrix(1.4552084,0,0,1.4552084,353.40658,-315.79146)" />
  <g
     id="g180"
     transform="matrix(1.4552084,0,0,1.4552084,353.40658,-315.79146)" />
  <flowRoot
     style="font-style:normal;font-variant:normal;font-weight:500;font-stretch:normal;font-size:40px;line-height:1.25;font-family:Roboto;-inkscape-font-specification:'Roboto Medium';letter-spacing:0px;word-spacing:0px;fill:#000000;fill-opacity:1;stroke:none"
     id="flowRoot1041"
     xml:space="preserve"
     transform="matrix(1.4552084,0,0,1.4552084,353.40658,-315.79146)"><flowRegion
       id="flowRegion1043"><rect
         y="550.21259"
         x="1147.9391"
         height="40.43428"
         width="3.9448078"
         id="rect1045" /></flowRegion><flowPara
       id="flowPara1047" /></flowRoot>  <g
     style="fill:#000000;fill-opacity:1"
     id="g4376"
     transform="matrix(0.26458333,0,0,0.26458333,-108.52902,109.94032)" />
  <g
     style="fill:#000000;fill-opacity:1"
     id="g4378"
     transform="matrix(0.26458333,0,0,0.26458333,-108.52902,109.94032)" />
  <g
     style="fill:#000000;fill-opacity:1"
     id="g4380"
     transform="matrix(0.26458333,0,0,0.26458333,-108.52902,109.94032)" />
  <g
     style="fill:#000000;fill-opacity:1"
     id="g4382"
     transform="matrix(0.26458333,0,0,0.26458333,-108.52902,109.94032)" />
  <g
     style="fill:#000000;fill-opacity:1"
     id="g4384"
     transform="matrix(0.26458333,0,0,0.26458333,-108.52902,109.94032)" />
  <g
     style="fill:#000000;fill-opacity:1"
     id="g4386"
     transform="matrix(0.26458333,0,0,0.26458333,-108.52902,109.94032)" />
  <g
     style="fill:#000000;fill-opacity:1"
     id="g4388"
     transform="matrix(0.26458333,0,0,0.26458333,-108.52902,109.94032)" />
  <g
     style="fill:#000000;fill-opacity:1"
     id="g4390"
     transform="matrix(0.26458333,0,0,0.26458333,-108.52902,109.94032)" />
  <g
     style="fill:#000000;fill-opacity:1"
     id="g4392"
     transform="matrix(0.26458333,0,0,0.26458333,-108.52902,109.94032)" />
  <g
     style="fill:#000000;fill-opacity:1"
     id="g4394"
     transform="matrix(0.26458333,0,0,0.26458333,-108.52902,109.94032)" />
  <g
     style="fill:#000000;fill-opacity:1"
     id="g4396"
     transform="matrix(0.26458333,0,0,0.26458333,-108.52902,109.94032)" />
  <g
     style="fill:#000000;fill-opacity:1"
     id="g4398"
     transform="matrix(0.26458333,0,0,0.26458333,-108.52902,109.94032)" />
  <g
     style="fill:#000000;fill-opacity:1"
     id="g4400"
     transform="matrix(0.26458333,0,0,0.26458333,-108.52902,109.94032)" />
  <g
     style="fill:#000000;fill-opacity:1"
     id="g4402"
     transform="matrix(0.26458333,0,0,0.26458333,-108.52902,109.94032)" />
  <g
     style="fill:#000000;fill-opacity:1"
     id="g4404"
     transform="matrix(0.26458333,0,0,0.26458333,-108.52902,109.94032)" />
  <path
     style="fill:#294270;fill-opacity:1"
     id="path4589"
     d="m 229.19393,214.8924 c -3.50702,-1.13372 -6.81992,-2.20476 -9.61739,-3.25388 -3.77539,-1.41547 -4.65839,-2.0654 -4.85373,-2.3222 0.20507,-0.1886 0.85379,-0.47649 1.29802,-0.67305 1.54205,-0.68399 3.65369,-1.62053 3.77235,-3.75104 0.14239,-2.56867 -2.28081,-7.50879 -24.8717,-20.69469 -17.50349,-10.21681 -23.05643,-19.64373 -29.48628,-30.55973 -3.60135,-6.11402 -7.32562,-12.43677 -13.48467,-19.64251 -1.71244,-2.00332 -3.89589,-4.25981 -6.42377,-6.87226 C 135.05741,116.30317 119.23654,99.951636 118.12595,80.387036 116.72205,55.557317 98.54369,44.388747 86.0844,44.388747 l -0.3073,0.0018 c -8.0437,0.11385 -13.55344,5.377055 -16.75925,9.773781 -1.48909,2.047736 -4.23057,4.640135 -6.05316,6.039777 -2.22056,1.699654 -3.96769,3.734625 -5.19025,6.045849 -0.56472,1.055217 -0.60975,2.080603 -0.1265,2.887535 0.61219,1.021752 1.96376,1.540839 3.64334,1.34366 1.31688,-0.15203 2.52241,-0.22632 3.68533,-0.22632 5.47078,0 9.43055,1.617498 11.76798,4.807483 3.33115,4.545191 3.31715,12.23899 -0.0407,22.865954 -9.5468,30.215314 -12.31627,52.554274 -8.46725,68.294804 4.95291,20.26505 11.79415,32.61358 35.4439,43.87098 2.2656,1.07833 4.77888,2.01733 7.49054,2.85895 -1.71183,5.2158 -3.60074,10.37136 -5.29492,13.63557 -0.12719,0.24587 -0.20265,0.53553 -0.27628,0.81546 -0.031,0.11753 -0.0748,0.28479 -0.11806,0.4132 -0.3706,-0.21114 -1.08199,-0.75155 -1.72339,-1.23899 -1.05217,-0.79964 -2.36175,-1.7946 -3.75044,-2.63377 -2.57839,-1.55786 -4.57928,-2.28326 -6.29597,-2.28326 -1.31689,0 -2.28326,0.4272 -3.05548,0.84527 -0.19228,0.10396 -0.64384,0.34868 -0.53066,0.84588 0.11385,0.4996 0.57569,0.52274 1.06495,0.54647 1.25421,0.0609 4.51173,0.2208 7.63598,3.54049 -1.40938,-0.0407 -4.50625,-0.65601 -9.45188,-1.88101 -0.57567,-0.14237 -1.14526,-0.20999 -1.69356,-0.20999 -4.09427,0 -6.12071,3.89953 -6.88383,5.36431 -0.0998,0.19159 -0.17043,0.35478 -0.21229,0.41501 l -0.27506,0.38157 0.3341,0.77954 0.38702,0 c 0.1863,0 0.29454,-0.13823 0.5836,-0.30426 4.56771,-2.6198 9.90401,-3.06098 15.20624,-1.10026 1.5463,0.57142 2.42808,1.29194 2.91248,1.85606 -0.14423,0.11017 -0.28054,0.22632 -0.41442,0.34442 -1.37043,-0.0573 -2.46216,-0.0846 -3.36645,-0.0846 -1.45137,0 -2.24065,0.0695 -3.15467,0.15019 -0.87996,0.0773 -1.87735,0.1656 -3.7249,0.20447 -1.32296,0.0281 -2.56926,0.23187 -3.60377,0.5903 -2.95631,1.02357 -4.35777,2.95143 -4.42288,3.04209 l -1.8725,2.72992 -0.0547,0.0973 c -0.21919,0.49535 -0.23856,0.88787 -0.0573,1.16658 0.23002,0.35356 0.68522,0.43875 1.19883,0.11385 3.95308,-2.49989 7.16618,-3.66585 10.11275,-3.66585 1.89803,0 3.48511,0.48378 5.01985,0.95358 1.48606,0.45519 3.02324,0.92133 4.77949,0.92133 0.68278,0 1.34913,-0.0761 2.03861,-0.21597 0.97245,-0.19849 1.88344,-0.42902 2.76461,-0.63714 2.23517,-0.52882 4.16607,-1.01566 6.27406,-1.01566 0.99862,0 2.00636,0.11086 3.04088,0.33288 0.82884,0.5203 1.30715,1.05216 1.553,1.43189 -1.70878,-0.0784 -3.01471,-0.115 -4.06932,-0.115 -1.45137,0 -2.24064,0.0695 -3.15468,0.15019 -0.87995,0.0773 -1.87735,0.1656 -3.72488,0.20447 -1.32297,0.0281 -2.56926,0.23186 -3.60378,0.59029 -2.9563,1.02357 -4.35777,2.95143 -4.42288,3.0421 l -1.87249,2.72991 -0.0548,0.0973 c -0.21907,0.49535 -0.23855,0.88787 -0.0572,1.16658 0.23003,0.35356 0.68522,0.43875 1.19883,0.11385 3.95308,-2.49989 7.16618,-3.66585 10.11274,-3.66585 1.89804,0 3.48512,0.48378 5.01986,0.95358 1.48606,0.45519 3.02324,0.92133 4.77949,0.92133 0.68278,0 1.34913,-0.0761 2.03861,-0.21597 0.97245,-0.19826 1.88344,-0.42902 2.76461,-0.63714 2.23517,-0.52882 4.16607,-1.01566 6.27406,-1.01566 3.58735,0 7.28059,1.36983 11.97549,4.57684 l 0.20935,0.0115 0.18805,0 0.38886,0.11684 0.16675,-0.2208 c 0.19474,-0.39981 0.19474,-0.39981 -1.29133,-2.29968 -1.71669,-2.195 -6.27771,-8.02546 -5.98501,-9.59914 0.79659,-4.27439 2.81268,-11.28297 4.86651,-17.92763 3.9969,0.55377 8.1502,1.08625 12.44468,1.63392 9.85168,1.25665 21.01842,2.68185 32.54055,4.69187 5.34664,0.9335 10.98052,1.97714 16.42879,2.98611 17.57165,3.25569 35.74209,6.62154 46.30516,6.62154 4.86711,0 7.90556,-0.70652 9.28756,-2.1597 0.62497,-0.65723 0.91829,-1.45928 0.87204,-2.38427 -0.31521,-6.28321 -14.10719,-10.74201 -26.27559,-14.67501 z m -107.7709,18.59764 c -0.031,0.11753 -0.0748,0.28478 -0.11806,0.41319 -0.3706,-0.21114 -1.08198,-0.75155 -1.72339,-1.23899 -0.74972,-0.56959 -1.63393,-1.23776 -2.58021,-1.87916 -0.0968,-0.30793 -0.1357,-0.56718 -0.0998,-0.7613 0.66575,-3.57154 2.18284,-9.05327 3.86181,-14.63543 2.2376,0.46614 4.5744,0.89516 6.98788,1.30168 -1.89865,5.97345 -4.10401,12.22924 -6.05256,15.98456 -0.12719,0.24585 -0.20265,0.53551 -0.27566,0.81545 z" />
  <g
     style="fill:#294270;fill-opacity:1"
     id="g4591"
     transform="matrix(0.60854166,0,0,0.60854166,-174.64979,52.591281)" />
  <g
     style="fill:#294270;fill-opacity:1"
     id="g4593"
     transform="matrix(0.60854166,0,0,0.60854166,-174.64979,52.591281)" />
  <g
     style="fill:#294270;fill-opacity:1"
     id="g4595"
     transform="matrix(0.60854166,0,0,0.60854166,-174.64979,52.591281)" />
  <g
     style="fill:#294270;fill-opacity:1"
     id="g4597"
     transform="matrix(0.60854166,0,0,0.60854166,-174.64979,52.591281)" />
  <g
     style="fill:#294270;fill-opacity:1"
     id="g4599"
     transform="matrix(0.60854166,0,0,0.60854166,-174.64979,52.591281)" />
  <g
     style="fill:#294270;fill-opacity:1"
     id="g4601"
     transform="matrix(0.60854166,0,0,0.60854166,-174.64979,52.591281)" />
  <g
     style="fill:#294270;fill-opacity:1"
     id="g4603"
     transform="matrix(0.60854166,0,0,0.60854166,-174.64979,52.591281)" />
  <g
     style="fill:#294270;fill-opacity:1"
     id="g4605"
     transform="matrix(0.60854166,0,0,0.60854166,-174.64979,52.591281)" />
  <g
     style="fill:#294270;fill-opacity:1"
     id="g4607"
     transform="matrix(0.60854166,0,0,0.60854166,-174.64979,52.591281)" />
  <g
     style="fill:#294270;fill-opacity:1"
     id="g4609"
     transform="matrix(0.60854166,0,0,0.60854166,-174.64979,52.591281)" />
  <g
     style="fill:#294270;fill-opacity:1"
     id="g4611"
     transform="matrix(0.60854166,0,0,0.60854166,-174.64979,52.591281)" />
  <g
     style="fill:#294270;fill-opacity:1"
     id="g4613"
     transform="matrix(0.60854166,0,0,0.60854166,-174.64979,52.591281)" />
  <g
     style="fill:#294270;fill-opacity:1"
     id="g4615"
     transform="matrix(0.60854166,0,0,0.60854166,-174.64979,52.591281)" />
  <g
     style="fill:#294270;fill-opacity:1"
     id="g4617"
     transform="matrix(0.60854166,0,0,0.60854166,-174.64979,52.591281)" />
  <g
     style="fill:#294270;fill-opacity:1"
     id="g4619"
     transform="matrix(0.60854166,0,0,0.60854166,-174.64979,52.591281)" />
</svg>
